Patient4_TMGait_0pt2_03_right_26_EMG.mot
version=1
nRows=20
nColumns=33
inDegrees=no
endheader
time	1LAddLong	2LGlutMax	3LGlutMed	4LIliopsoas	5LSemiMemb	6LBicFemLong	7LRecFem	8LVastMed	9LVastLat	10LGasMed	11LTibAnt	12lTibPost	13LPeroneusLong	14LSol	15LExtDigLong	16LFlexDigLong	17RAddLong	18RGlutMax	19RGlutMed	20RIliopsoas	21RSemiMemb	22RBicFemLong	23RRecFem	24RVastMed	25RVastLat	26RGasMed	27RTibAnt	28RTibPost	29RPeroneusLong	30RSol	31RExtDigLong	32RFlexDigLong
55.25	0.019684	-0.20371	-0.17624	0.011139	0.006714	-0.010376	-0.14481	-0.031586	-0.20294	0.008698	-0.033722	-0.07431	-0.030823	-0.15564	-0.026855	-0.004578	-0.088043	-0.067902	0.55893	-0.050507	-0.024719	-0.01236	-0.39002	0.17822	0.067902	-0.008087	-0.047302	0.002747	-0.022125	0.038605	-0.003815	-0.015564
55.251	-0.001526	-0.18051	-0.076904	-0.000153	-0.002747	0.018616	-0.1712	-0.02594	-0.15793	0.023804	0.002441	-0.083923	-0.010071	-0.1239	-0.078735	-0.013123	-0.12497	-0.072784	0.70297	-0.22797	0.007629	-0.044556	-0.40863	0.14084	0.071106	-0.010071	0.19348	0	-0.030975	0.034485	-0.005951	-0.010071
55.252	0.000458	-0.13107	-0.079346	-0.000763	0.000916	0.027771	-0.097809	0	-0.10162	0.028992	0.007019	-0.077667	-0.16342	-0.0354	-0.023041	-0.014496	-0.075989	-0.011902	-0.041351	-0.25513	0.023956	-0.049133	-0.40909	0.11108	0.062256	0	0.40756	-0.003357	0.003967	-0.016632	-0.004425	-0.012207
55.253	0.032196	-0.12497	-0.1062	0.00061	-0.003662	0.048981	-0.0914	0.038757	0.025787	0.037689	0.001373	-0.086517	-0.25391	0.013885	0.013275	0.001373	-0.046997	0.03418	-0.31693	-0.16159	0.032654	-0.072174	-0.39871	0.1033	0.059662	-0.002441	0.18265	-0.001373	0.028229	-0.040894	-0.004883	-0.013123
55.254	0.059052	-0.16312	-0.12054	-0.003204	0.009308	0.04837	-0.1796	0.021362	0.14984	0.024109	-0.027924	-0.071564	0.20279	0.012665	-0.00885	0.003967	-0.015411	0.056763	-0.019226	-0.1947	0.066071	-0.056763	-0.38132	0.09613	0.063934	-0.010223	0.01236	0.000153	-0.027161	0.00946	-0.00351	-0.010681
55.255	-0.019836	-0.083618	-0.093079	-0.004883	0.011597	-0.0354	-0.17517	0.003052	0.15228	0.005493	-0.024261	-0.07019	0.036316	-0.002747	-0.027161	-0.00351	-0.016327	0.02182	-0.060272	-0.01709	0.056305	-0.056152	-0.36758	0.059967	0.050507	-0.00824	-0.019836	0	-0.010223	0.019684	0.000305	-0.007477
55.256	-0.017853	-0.05249	-0.050507	0.000305	0.016479	-0.079956	-0.007172	-0.014496	0.103	-0.002594	0.007172	-0.065155	-0.23422	0.072327	0.045929	0.009613	-0.027771	0.061493	0.42969	0.12329	0.070801	-0.068054	-0.38971	0.011902	0.053558	-0.003052	-0.21759	-0.000458	0.070496	-0.020599	-0.001373	-0.009003
55.257	0.032043	-0.010681	0.008698	0.01236	0.010986	0.057831	0.17532	-0.027924	0.011292	0.006714	-0.008698	-0.056152	-0.008545	0.025024	0.057068	0.00061	-0.056	0.072174	0.33463	0.23178	0.098572	-0.076599	-0.37445	0.005035	0.051575	-0.005493	-0.19348	0.001984	0.068207	-0.043945	-0.005951	-0.010071
55.258	0.016937	-0.001678	-0.081787	0.014801	0.005035	0.083618	0.21347	-0.012207	0.11856	0.02594	-0.010986	-0.058289	-0.041046	-0.029602	-0.016174	0.005951	-0.070648	0.060425	0.26703	0.26398	0.12283	-0.058746	-0.37369	0.012817	0.039825	-0.004272	-0.21271	0.000763	0.045013	-0.020752	-0.002747	-0.019989
55.259	0.006409	-0.009918	-0.076294	0.023041	0.006866	0.10422	0.20065	-0.014648	0.22934	0.022736	0	-0.055847	-0.008087	0.014801	0.00412	0.01358	-0.058746	0.080566	-0.24292	0.25711	0.14893	-0.082245	-0.36163	0.002289	0.025635	-0.002441	-0.10544	-0.002441	0.073242	-0.068054	-0.005798	-0.014038
55.26	0.00824	0.057373	0.060883	-0.0177	0.008087	0.066833	0.18417	-0.005035	0.22156	0.031128	0.001984	-0.055695	-0.050812	0.046997	0.015717	0.003815	-0.031281	0.11795	-0.23834	0.1648	0.15274	-0.067902	-0.32288	0.005188	0.019531	-0.010071	0.29083	0.00061	-0.009613	-0.093994	-0.009308	-0.010376
55.261	0.008545	0.1358	0.19302	-0.036316	0.00885	0.018005	0.14725	-0.00946	0.28076	0.014954	-0.004272	-0.05661	-0.13611	0.026398	0.009308	0.005493	-0.025024	0.12558	-0.14847	0.10239	0.17258	-0.067749	-0.33478	-0.005035	0.017548	-0.016479	0.33966	0.000153	-0.067902	-0.00351	-0.003662	-0.011139
55.262	0.00351	0.16541	0.24155	-0.018616	-0.023499	0.004425	0.020905	-0.009613	0.16113	0.036011	0.019684	-0.050354	-0.10498	0.032806	0.010834	0.011139	0.003357	0.12619	-0.33096	0.076599	0.19073	-0.065308	-0.39932	-0.007629	0.033722	-0.013123	0.42786	0.000916	0.038147	0.024872	-0.003204	-0.018921
55.263	-0.012054	0.21561	0.088043	-0.012817	-0.048828	0.033569	0.03067	0.010986	-0.12207	0.049591	0.002136	-0.056	0.17349	0.036163	0.029297	0.003204	0.009003	0.092621	-0.021515	0.096893	0.21637	-0.033264	-0.42206	0.005188	0.031281	-0.013733	0.27023	-0.006409	0.046539	0.054626	-0.000305	-0.01358
55.264	-0.013428	0.24277	-0.12878	-0.007782	-0.066071	0.055237	0.068512	0.052643	-0.37338	0.010681	-0.003815	-0.060577	-0.016174	0.071869	0.05722	0.017853	0.010529	0.054932	0.37262	0.081635	0.23056	-0.027313	-0.40939	-0.021057	0.040283	-0.011444	0.2272	0.000458	-0.43488	0.035553	0.001068	-0.018005
55.265	-0.014038	0.29175	-0.040131	-0.014496	-0.013123	0.027008	0.13534	0.045013	-0.45242	-0.011139	0.008545	-0.056	-0.046387	0.022583	0.015564	0.014801	0.016937	0.077057	0.42419	-0.11215	0.22079	-0.014801	-0.45151	-0.007324	0.041962	-0.009766	-0.10803	-0.000458	-0.075989	-0.025177	-0.00473	-0.016479
55.266	-0.001526	0.31296	0.20096	-0.013123	0.005798	0.002899	0.20691	0.018921	-0.28091	-0.081177	0.00885	-0.065613	0.092163	-0.000305	0.01709	0.010529	-0.00061	0.041962	-0.017395	-0.16647	0.23407	-0.027466	-0.4773	0.005646	0.04425	-0.008545	0.096741	-0.008545	0.18249	-0.002594	-0.003052	-0.007935
55.267	0.007019	0.2298	0.17685	0.018158	0.02243	-0.004272	0.22125	0.003967	-0.018616	-0.055237	0.016022	-0.14297	-0.096741	0.074615	0.036774	0.024414	-0.013733	0.066833	-0.05188	-0.17548	0.2504	-0.028687	-0.48675	0.007629	0.051422	-0.00824	-0.1384	0.001678	0.14053	0.011292	-0.002289	-0.009308
55.268	0.006104	0.2504	0.06134	0.032501	0.043793	0.056152	0.35965	-0.007782	0.067291	-0.062561	0.010223	-0.18723	-0.11688	0.14557	-0.011292	0.018463	0.008698	0.018616	0.24139	-0.23926	0.24246	-0.043793	-0.48019	0.008392	0.042725	-0.002747	-0.56534	-0.000763	0.1564	-0.03067	-0.004425	-0.004425
55.269	0.005798	0.18555	-0.14877	0.020599	0.016632	0.067596	0.43091	-0.010071	0.17441	0.070496	0.003967	0.13336	-0.28442	0.2417	-0.049438	0.02121	0.046539	-0.017853	-0.077057	-0.20767	0.22842	-0.075378	-0.40756	0.047302	0.038452	-0.00061	-0.40619	0.003357	0.16403	-0.023499	-0.007324	-0.005951
